<svg width="72" height="57" viewBox="0 0 72 57" xmlns="http://www.w3.org/2000/svg"><title>Shape</title><path d="M71.72 16.309a1.523 1.523 0 0 0-1.241-.637h-55.51L10.867 1.105A1.52 1.52 0 0 0 9.402 0h-7.88C.681 0 0 .678 0 1.512c0 .835.681 1.513 1.521 1.513H8.25l9.585 34.036c-3.517.055-6.362 2.913-6.362 6.422 0 3.545 2.9 6.428 6.464 6.428h1.95a4.896 4.896 0 0 0-.391 1.922c0 2.728 2.232 4.948 4.974 4.948 2.744 0 4.976-2.22 4.976-4.948a4.91 4.91 0 0 0-.39-1.922H45.16a4.89 4.89 0 0 0-.496 2.142c0 2.727 2.232 4.947 4.974 4.947 2.743 0 4.975-2.22 4.975-4.947 0-.768-.181-1.492-.496-2.142h2.671c.84 0 1.522-.677 1.522-1.512s-.682-1.513-1.522-1.513H17.936c-1.887 0-3.423-1.527-3.423-3.403 0-1.876 1.536-3.403 3.423-3.403h45.056c.762 0 1.387-.56 1.498-1.286l7.425-21.11c.162-.463.09-.975-.196-1.375zM49.638 53.974a1.93 1.93 0 0 1-1.933-1.923 1.93 1.93 0 0 1 1.933-1.922 1.93 1.93 0 0 1 1.932 1.922 1.93 1.93 0 0 1-1.932 1.923zm-23.237-2.142a1.93 1.93 0 0 1-1.933 1.922 1.93 1.93 0 0 1-1.933-1.922 1.93 1.93 0 0 1 1.933-1.922 1.93 1.93 0 0 1 1.933 1.922zm40.752-29.776H56.686l.48-3.36h11.17l-1.182 3.36zm-2.616 7.437h-8.914l.63-4.411h9.836l-1.552 4.41zm-2.659 7.562h-7.336l.648-4.537h8.285l-1.597 4.537zm-18.202 0v-4.537h8.441l-.649 4.537h-7.792zm-10.835 0l-.649-4.537h8.441v4.537h-7.792zm-11.851 0l-1.278-4.537h9.407l.648 4.537h-8.777zm22.686-14.999v-3.36h10.416l-.48 3.36h-9.936zm9.504 3.025l-.63 4.411h-8.874v-4.41h9.504zm-12.547-3.025h-9.936l-.48-3.36h10.416v3.36zm0 3.025v4.411h-8.873l-.63-4.41h9.503zm-11.946 4.412H18.86l-1.243-4.411h10.44l.63 4.41zm-1.544-10.796l.48 3.36H16.767l-.946-3.36h11.323z" fill="#9B9B9B" fill-rule="nonzero"/></svg>